<svg xmlns="http://www.w3.org/2000/svg" viewBox="0 0 394.9 500"><path d="m256 885-20-7c-8-3-10-5-14-10-8-10-12-17-13-39-1-10-2-14-6-19-3-5-3-7-3-13l2-14 2-16c0-8-1-10-6-25-5-11-5-26-3-40 3-14 4-18 8-23 4-3 6-2 5-7a262 262 0 0 1 52-121c8-10 23-24 33-32 11-8 34-20 47-24 28-9 55-9 81-1s54 27 70 48c6 8 14 24 16 33 3 10 3 34 1 47-2 16-6 27-17 48l-9 21c0 2 0 4 4 4 10 0 10 8 3 32-7 21-12 30-23 41l-26 21c-7 5-12 11-18 22l-6 14v-10c0-10-2-21-6-28-7-12-7-17-6-32 2-17 1-17 7-22 10-6 11-14 6-17-20-7-34 13-44 31l-18-15-41-37-10-5-21-13c-14-9-21-11-30-12-10 0-14 1-14 8 0 8 8 16 38 40l30 24-37-27c-28-21-44-31-52-32-4-1-7-1-10 3-7 6-6 14 4 24 4 5 27 25 37 33 15 12 33 27 38 33l-19-13a440 440 0 0 0-58-35c-6 0-9 9-4 19 4 7 18 21 39 36 17 14 19 14 22 22-4 0-4-1-10-5l-12-9c-11-8-25-18-29-19-6-1-9 1-9 7 0 10 5 19 28 41 15 14 15 13 18 24 3 9 9 21 21 38l6 11c-5 0-14 0-24-3z" style="fill:#000" transform="matrix(1.25 0 0 1.25 -242 -610)"/></svg>